<svg xmlns="http://www.w3.org/2000/svg" xmlns:xlink="http://www.w3.org/1999/xlink" width="240" zoomAndPan="magnify" viewBox="0 0 180 54" height="72" preserveAspectRatio="xMidYMid meet" version="1.0"><defs><g/><clipPath id="83e984c714"><path d="M 42 26 L 79 26 L 79 46.78125 L 42 46.78125 Z M 42 26 " clip-rule="nonzero"/></clipPath><clipPath id="5f52f8a441"><path d="M 1.636719 6.28125 L 85.582031 6.28125 L 85.582031 39 L 1.636719 39 Z M 1.636719 6.28125 " clip-rule="nonzero"/></clipPath></defs><path fill="#00dffc" d="M 16.234375 42.242188 C 39.363281 47.402344 55.753906 16.960938 76.328125 25.007812 C 69.125 23.429688 59.644531 27.535156 47.890625 37.320312 C 35.316406 46.410156 24.761719 48.050781 16.234375 42.242188 Z M 16.234375 42.242188 " fill-opacity="1" fill-rule="evenodd"/><g clip-path="url(#83e984c714)"><path fill="#00dffc" d="M 78.234375 28.957031 C 65.9375 19.632812 54.410156 42.621094 42.222656 45.484375 C 54.441406 52.882812 63.957031 26.042969 78.234375 28.957031 Z M 78.234375 28.957031 " fill-opacity="1" fill-rule="evenodd"/></g><g clip-path="url(#5f52f8a441)"><path fill="#377dff" d="M 85.5625 26.648438 C 62.671875 -4.078125 26.371094 39.179688 16.066406 25.066406 C 7.652344 13.542969 28.785156 6.910156 35.417969 18.023438 C 24.117188 -6.746094 -9.328125 12.390625 5.289062 32.039062 C 14.449219 44.355469 29.992188 37.882812 42.800781 29.679688 C 55.464844 21.570312 70.671875 14.578125 85.5625 26.648438 Z M 85.5625 26.648438 " fill-opacity="1" fill-rule="evenodd"/></g><g fill="#377dff" fill-opacity="1"><g transform="translate(89.641668, 36.706222)"><g><path d="M 12.660156 0.332031 C 15.769531 0.332031 18.3125 -1.089844 19.570312 -3.289062 L 19.933594 0 L 23.253906 0 L 23.253906 -12.628906 L 13.882812 -12.628906 L 13.882812 -9.238281 L 19.1875 -9.238281 C 18.726562 -5.6875 16.015625 -3.421875 12.660156 -3.421875 C 7.652344 -3.421875 5.519531 -7.207031 5.519531 -11.851562 C 5.519531 -16.179688 7.652344 -20.066406 12.59375 -20.066406 C 15.570312 -20.066406 18.015625 -18.644531 19.089844 -15.46875 L 22.808594 -17.023438 C 20.925781 -21.386719 17.222656 -23.734375 12.628906 -23.734375 C 4.910156 -23.734375 1.355469 -18.082031 1.355469 -11.683594 C 1.355469 -5.273438 4.976562 0.332031 12.660156 0.332031 Z M 12.660156 0.332031 "/></g></g></g><g fill="#377dff" fill-opacity="1"><g transform="translate(114.992429, 36.706222)"><g><path d="M 9.273438 0.332031 C 12.050781 0.332031 14.246094 -0.644531 16.046875 -2.644531 L 13.273438 -5.074219 C 12.113281 -3.785156 10.792969 -3.320312 9.304688 -3.320312 C 6.710938 -3.320312 5.519531 -4.777344 5.171875 -6.941406 L 16.511719 -6.941406 C 16.59375 -7.171875 16.660156 -7.851562 16.660156 -8.527344 C 16.660156 -12.214844 14.792969 -16.859375 9.007812 -16.859375 C 3.421875 -16.859375 0.910156 -12.496094 0.910156 -8.199219 C 0.910156 -3.75 3.585938 0.332031 9.273438 0.332031 Z M 5.171875 -9.851562 C 5.554688 -11.917969 6.59375 -13.46875 8.976562 -13.46875 C 11.074219 -13.46875 12.429688 -12.214844 12.695312 -9.851562 Z M 5.171875 -9.851562 "/></g></g></g><g fill="#377dff" fill-opacity="1"><g transform="translate(132.625585, 36.706222)"><g><path d="M 2.398438 0 L 6.394531 0 L 6.394531 -9.039062 C 6.394531 -11.917969 7.851562 -13.140625 10.113281 -13.140625 C 12.179688 -13.140625 13.273438 -11.570312 13.273438 -9.40625 L 13.273438 0 L 17.253906 0 L 17.253906 -9.917969 C 17.253906 -13.371094 15.601562 -16.859375 11.273438 -16.859375 C 9.652344 -16.859375 7.71875 -16.214844 6.394531 -14.59375 L 6.394531 -16.511719 L 2.398438 -16.511719 Z M 2.398438 0 "/></g></g></g><g fill="#377dff" fill-opacity="1"><g transform="translate(151.812177, 36.706222)"><g><path d="M 2.296875 -19.636719 L 6.496094 -19.636719 L 6.496094 -23.355469 L 2.296875 -23.355469 Z M 2.398438 0 L 6.394531 0 L 6.394531 -16.511719 L 2.398438 -16.511719 Z M 2.398438 0 "/></g></g></g><g fill="#377dff" fill-opacity="1"><g transform="translate(160.603967, 36.706222)"><g><path d="M 9.273438 0.332031 C 12.050781 0.332031 14.246094 -0.644531 16.046875 -2.644531 L 13.273438 -5.074219 C 12.113281 -3.785156 10.792969 -3.320312 9.304688 -3.320312 C 6.710938 -3.320312 5.519531 -4.777344 5.171875 -6.941406 L 16.511719 -6.941406 C 16.59375 -7.171875 16.660156 -7.851562 16.660156 -8.527344 C 16.660156 -12.214844 14.792969 -16.859375 9.007812 -16.859375 C 3.421875 -16.859375 0.910156 -12.496094 0.910156 -8.199219 C 0.910156 -3.75 3.585938 0.332031 9.273438 0.332031 Z M 5.171875 -9.851562 C 5.554688 -11.917969 6.59375 -13.46875 8.976562 -13.46875 C 11.074219 -13.46875 12.429688 -12.214844 12.695312 -9.851562 Z M 5.171875 -9.851562 "/></g></g></g></svg>
